<?xml version="1.0" encoding="UTF-8"?>
<svg id="Layer_2" data-name="Layer 2" xmlns="http://www.w3.org/2000/svg" viewBox="0 0 29.96 31.74">
  <g id="Layer_1-2" data-name="Layer 1">
    <path d="M14.98,29.96c-3.12,0-6.1-.95-8.64-2.74-1.37-.97-2.55-2.14-3.51-3.49C.98,21.17,0,18.14,0,14.98,0,6.72,6.72,0,14.98,0s14.98,6.72,14.98,14.98c0,3.29-1.05,6.42-3.04,9.04-.3,.39-.86,.47-1.25,.17-.39-.3-.47-.86-.17-1.25,1.75-2.31,2.68-5.06,2.68-7.97,0-7.28-5.92-13.2-13.2-13.2S1.78,7.7,1.78,14.98c0,2.79,.86,5.45,2.49,7.71,.85,1.19,1.89,2.22,3.1,3.07,2.23,1.58,4.87,2.41,7.61,2.41,.49,0,.89,.4,.89,.89s-.4,.89-.89,.89Z"/>
    <path d="M23.94,14.85c0,.26-.13,.44-.45,.56-.64,.23-1.26,.51-1.87,.82-1.29,.67-2.44,1.54-3.42,2.62-1.04,1.14-1.81,2.45-2.38,3.89-.1,.25-.18,.5-.29,.75-.1,.24-.29,.36-.54,.37-.26,0-.47-.11-.58-.34-.21-.44-.4-.88-.61-1.32-.54-1.13-1.09-2.26-1.86-3.25-.57-.74-1.26-1.35-2.05-1.84-1.05-.65-2.17-1.14-3.31-1.6-.11-.05-.23-.09-.33-.17-.35-.3-.29-.85,.13-1.04,.28-.13,.57-.22,.85-.33,.99-.4,1.92-.9,2.79-1.52,1.09-.78,2.02-1.72,2.8-2.82,.67-.95,1.2-1.98,1.61-3.08,.16-.43,.58-.57,.95-.34,.13,.09,.2,.22,.26,.36,.47,1.24,1.09,2.4,1.91,3.46,.95,1.23,2.1,2.24,3.45,3.02,.76,.44,1.54,.82,2.36,1.11,.09,.03,.18,.07,.27,.12,.22,.11,.32,.29,.32,.59Z"/>
    <path d="M26.75,27.24c0,.13-.07,.22-.23,.28-.32,.12-.63,.25-.93,.41-.65,.34-1.22,.77-1.71,1.31-.52,.57-.9,1.23-1.19,1.94-.05,.12-.09,.25-.14,.38-.05,.12-.15,.18-.27,.19-.13,0-.23-.05-.29-.17-.11-.22-.2-.44-.3-.66-.27-.57-.55-1.13-.93-1.63-.29-.37-.63-.67-1.03-.92-.52-.33-1.09-.57-1.65-.8-.06-.02-.12-.04-.16-.08-.18-.15-.14-.42,.07-.52,.14-.06,.28-.11,.42-.17,.49-.2,.96-.45,1.39-.76,.55-.39,1.01-.86,1.4-1.41,.34-.48,.6-.99,.8-1.54,.08-.21,.29-.29,.48-.17,.07,.04,.1,.11,.13,.18,.23,.62,.54,1.2,.95,1.73,.48,.61,1.05,1.12,1.72,1.51,.38,.22,.77,.41,1.18,.56,.05,.02,.09,.04,.13,.06,.11,.06,.16,.15,.16,.29Z"/>
  </g>
</svg>